# File created by Blade
# Date/Time:  Tue Jan 27 19:18:50 2015
#---------------------------------------------------------
:version 1.10
:name HOM
:units
  mass 1.0
  length 1.000000
  angle deg
:documentation
     Acclaim Skeleton File
:root
   axis xyz
   order TX TY TZ RX RY RZ
   position 0.000000 0.000000 0.000000
   orientation 0 0 0
:bonedata
   begin
      id 1
      name Spine_dum
      direction 0.000000 1.000000 0.000000
      length 6.116652
      axis 0.0 0.0 0.0 xyz
   end
   begin
      id 2
      name LeftUpLeg_dum
      direction 1.000000 0.000000 0.000000
      length 4.711765
      axis 0.0 0.0 0.0 xyz
   end
   begin
      id 3
      name RightUpLeg_dum
      direction -1.000000 0.000000 0.000000
      length 4.711765
      axis 0.0 0.0 0.0 xyz
   end
   begin
      id 4
      name Spine
      direction 0.000000 1.000000 0.000000
      length 0.000000
      axis 0.0 0.0 0.0 xyz
      dof rx ry rz
   end
   begin
      id 5
      name Spine_dum1
      direction 0.000000 1.000000 0.000000
      length 15.225563
      axis 0.0 0.0 0.0 xyz
   end
   begin
      id 6
      name Spine_dum2
      direction 0.000000 1.000000 0.000000
      length 8.977654
      axis 0.0 0.0 0.0 xyz
   end
   begin
      id 7
      name Spine_dum3
      direction 0.000000 1.000000 0.000000
      length 8.977654
      axis 0.0 0.0 0.0 xyz
   end
   begin
      id 8
      name Head
      direction 0.000000 1.000000 0.000000
      length 4.527550
      axis 0.0 0.0 0.0 xyz
      dof rx ry rz
   end
   begin
      id 9
      name LeftShoulder
      direction 1.000000 0.000000 0.000000
      length 7.110130
      axis 0.0 0.0 -90.0 xyz
      dof rx ry rz
   end
   begin
      id 10
      name LeftArm
      direction 1.000000 0.000000 0.000000
      length 10.398341
      axis 0.0 0.0 -90.0 xyz
      dof rx ry rz
   end
   begin
      id 11
      name LeftForeArm
      direction 1.000000 0.000000 0.000000
      length 8.888997
      axis 0.0 0.0 -90.0 xyz
      dof ry rz rx
   end
   begin
      id 12
      name LeftHand
      direction 0.000000 0.000000 0.000000
      length 0.000000
      axis 0.0 0.0 -90.0 xyz
      dof rx ry rz
   end
   begin
      id 13
      name LeftHand_dum1
      direction 0.000000 0.000000 0.000000
      length 0.000000
      axis 0.0 0.0 -90.0 xyz
   end
   begin
      id 14
      name LeftHand_dum2
      direction 1.000000 0.000000 0.000000
      length 3.937000
      axis 0.0 0.0 -90.0 xyz
   end
   begin
      id 15
      name LeftHandThumb1
      direction 0.000000 0.000000 1.000000
      length 3.937000
      axis 0.0 0.0 -90.0 xyz
      dof rx rz ry
   end
   begin
      id 16
      name RightShoulder
      direction -1.000000 0.000000 0.000000
      length 7.110130
      axis 0.0 0.0 90.0 xyz
      dof rx ry rz
   end
   begin
      id 17
      name RightArm
      direction -1.000000 0.000000 0.000000
      length 10.398341
      axis 0.0 0.0 90.0 xyz
      dof rx ry rz
   end
   begin
      id 18
      name RightForeArm
      direction -1.000000 0.000000 0.000000
      length 8.888997
      axis 0.0 0.0 90.0 xyz
      dof ry rz rx
   end
   begin
      id 19
      name RightHand
      direction 0.000000 0.000000 0.000000
      length 0.000000
      axis 0.0 0.0 90.0 xyz
      dof rx ry rz
   end
   begin
      id 20
      name RightHand_dum1
      direction 0.000000 0.000000 0.000000
      length 0.000000
      axis 0.0 0.0 90.0 xyz
   end
   begin
      id 21
      name RightHand_dum2
      direction -1.000000 0.000000 0.000000
      length 3.937000
      axis 0.0 0.0 90.0 xyz
   end
   begin
      id 22
      name RightHandThumb1
      direction 0.000000 0.000000 1.000000
      length 3.937000
      axis 0.0 0.0 90.0 xyz
      dof rx rz ry
   end
   begin
      id 23
      name LeftUpLeg
      direction 0.000000 -1.000000 0.000000
      length 15.510451
      axis 0.0 0.0 0.0 xyz
      dof rx ry rz
   end
   begin
      id 24
      name LeftLeg
      direction 0.000000 -1.000000 0.000000
      length 14.858061
      axis 0.0 0.0 0.0 xyz
      dof rx ry rz
   end
   begin
      id 25
      name LeftFoot
      direction 0.000000 -0.258819 0.965926
      length 5.128852
      axis 15.0 0.0 0.0 xyz
      dof rx ry rz
   end
   begin
      id 26
      name LeftToeBase
      direction 0.000000 0.000000 1.000000
      length 2.952750
      axis 0.0 0.0 0.0 xyz
      dof rx ry rz
   end
   begin
      id 27
      name RightUpLeg
      direction 0.000000 -1.000000 0.000000
      length 15.510451
      axis 0.0 0.0 0.0 xyz
      dof rx ry rz
   end
   begin
      id 28
      name RightLeg
      direction 0.000000 -1.000000 0.000000
      length 14.858061
      axis 0.0 0.0 0.0 xyz
      dof rx ry rz
   end
   begin
      id 29
      name RightFoot
      direction 0.000000 -0.258819 0.965926
      length 5.128852
      axis 15.0 0.0 0.0 xyz
      dof rx ry rz
   end
   begin
      id 30
      name RightToeBase
      direction 0.000000 0.000000 1.000000
      length 2.952750
      axis 0.0 0.0 0.0 xyz
      dof rx ry rz
   end
:hierarchy
   begin
      root Spine_dum LeftUpLeg_dum RightUpLeg_dum
      Spine_dum Spine
      LeftUpLeg_dum LeftUpLeg
      RightUpLeg_dum RightUpLeg
      Spine Spine_dum1 Spine_dum2 Spine_dum3
      Spine_dum1 Head
      Spine_dum2 LeftShoulder
      Spine_dum3 RightShoulder
      LeftShoulder LeftArm
      LeftArm LeftForeArm
      LeftForeArm LeftHand
      LeftHand LeftHand_dum1 LeftHand_dum2
      LeftHand_dum1 LeftHandThumb1
      RightShoulder RightArm
      RightArm RightForeArm
      RightForeArm RightHand
      RightHand RightHand_dum1 RightHand_dum2
      RightHand_dum1 RightHandThumb1
      LeftUpLeg LeftLeg
      LeftLeg LeftFoot
      LeftFoot LeftToeBase
      RightUpLeg RightLeg
      RightLeg RightFoot
      RightFoot RightToeBase
   end

# File created by Blade
# Date/Time:  Tue Jan 27 19:18:41 2015
# Frame Rate: 120.000 fps
#------------------------------------------------------
:FULLY-SPECIFIED
:DEGREES
649
root 4.875763 32.290222 1.342468 -0.262427 27.427428 4.210480
Spine -0.902255 28.837256 -3.292812
Head -2.116066 -30.091948 -10.122015
LeftShoulder -6.518595 -8.609648 19.971961
LeftArm -2.350995 40.081618 -99.595366
LeftForeArm 5.281911 -0.000000 14.125993
LeftHand 10.729285 -0.000000 -5.027423
LeftHandThumb1 -26.253704 0.000000 33.147579
RightShoulder 0.608262 25.094876 -49.894217
RightArm 67.440374 17.277782 107.623599
RightForeArm 24.924369 -0.000000 56.546465
RightHand 23.895461 0.000000 -4.267891
RightHandThumb1 -24.326973 -0.000000 -32.862282
LeftUpLeg 5.067855 -17.152052 -4.491361
LeftLeg 3.277677 -0.000000 -0.000000
LeftFoot -11.788189 5.045917 -21.021577
LeftToeBase 18.255135 -0.000000 -0.000000
RightUpLeg 14.052175 -24.539664 -3.988786
RightLeg -2.630044 -0.000000 0.000000
RightFoot -17.824172 -21.579573 19.559930
RightToeBase 9.397860 -0.000000 -0.000000
650
root 4.876607 32.290247 1.339696 -0.222469 27.441115 4.208155
Spine -0.875457 28.826929 -3.280328
Head -2.241571 -30.022427 -10.178953
LeftShoulder -6.510188 -8.630234 19.948580
LeftArm -2.353485 40.131153 -99.595587
LeftForeArm 5.276852 -0.000000 14.157488
LeftHand 10.707539 -0.000000 -4.992440
LeftHandThumb1 -26.253704 0.000000 33.147579
RightShoulder 0.611065 25.013077 -49.841817
RightArm 67.664760 17.625817 108.106009
RightForeArm 24.927824 -0.000000 58.637961
RightHand 24.180736 -0.000000 -4.639898
RightHandThumb1 -24.326973 -0.000000 -32.862282
LeftUpLeg 5.023494 -17.206190 -4.482633
LeftLeg 3.285234 -0.000000 -0.000000
LeftFoot -11.793453 5.047049 -20.998736
LeftToeBase 18.220528 -0.000000 -0.000000
RightUpLeg 14.016417 -24.524536 -3.964861
RightLeg -2.653650 -0.000000 0.000000
RightFoot -17.834339 -21.598252 19.601567
RightToeBase 9.503904 -0.000000 -0.000000
651
root 4.877047 32.290189 1.335505 -0.159233 27.435014 4.211536
Spine -0.884531 28.836142 -3.289531
Head -2.331000 -29.956869 -10.247285
LeftShoulder -6.486113 -8.641488 19.940246
LeftArm -2.360373 40.160548 -99.610251
LeftForeArm 5.291251 0.000000 14.189263
LeftHand 10.700371 -0.000000 -4.954311
LeftHandThumb1 -26.253704 0.000000 33.147579
RightShoulder 0.645160 25.111807 -49.790702
RightArm 67.730174 18.068483 108.591089
RightForeArm 25.083274 -0.000000 60.765664
RightHand 24.818731 -0.000000 -5.033213
RightHandThumb1 -24.326973 -0.000000 -32.862282
LeftUpLeg 4.954491 -17.163369 -4.465660
LeftLeg 3.267747 -0.000000 -0.000000
LeftFoot -11.769837 5.049406 -20.999304
LeftToeBase 18.276646 -0.000000 -0.000000
RightUpLeg 13.947961 -24.440361 -3.921964
RightLeg -2.682705 -0.000000 0.000000
RightFoot -17.837832 -21.673771 19.619869
RightToeBase 9.416878 -0.000000 -0.000000
652
root 4.879211 32.289480 1.333279 -0.101741 27.442690 4.214999
Spine -0.895231 28.881477 -3.317078
Head -2.424944 -29.931002 -10.262189
LeftShoulder -6.454812 -8.684537 19.959815
LeftArm -2.374780 40.201740 -99.659504
LeftForeArm 5.321351 -0.000000 14.193638
LeftHand 10.705920 -0.000000 -4.931511
LeftHandThumb1 -26.253704 0.000000 33.147579
RightShoulder 0.663255 25.130383 -49.730383
RightArm 67.853931 18.518380 109.065995
RightForeArm 25.193918 -0.000000 62.942395
RightHand 24.492012 -0.000000 -5.105336
RightHandThumb1 -24.326973 -0.000000 -32.862282
LeftUpLeg 4.903096 -17.175156 -4.456012
LeftLeg 3.248726 -0.000000 -0.000000
LeftFoot -11.773455 5.079291 -21.015011
LeftToeBase 17.950014 -0.000000 -0.000000
RightUpLeg 13.898597 -24.430042 -3.902842
RightLeg -2.705234 -0.000000 0.000000
RightFoot -17.851741 -21.676393 19.644524
RightToeBase 9.476610 -0.000000 -0.000000
653
root 4.880623 32.289482 1.330857 -0.059375 27.459890 4.220543
Spine -0.885253 28.887644 -3.323259
Head -2.485753 -29.881488 -10.320708
LeftShoulder -6.450260 -8.679378 19.958440
LeftArm -2.321140 40.259358 -99.657570
LeftForeArm 5.317351 -0.000000 14.175039
LeftHand 10.681948 -0.000000 -4.901126
LeftHandThumb1 -26.253704 0.000000 33.147579
RightShoulder 0.763094 25.118285 -49.636767
RightArm 68.023553 18.972113 109.448608
RightForeArm 25.450039 -0.000000 65.202772
RightHand 25.117546 -0.000000 -5.743587
RightHandThumb1 -24.326973 -0.000000 -32.862282
LeftUpLeg 4.860792 -17.189560 -4.450300
LeftLeg 3.240176 -0.000000 -0.000000
LeftFoot -11.756437 5.046008 -21.019276
LeftToeBase 18.293717 -0.000000 -0.000000
RightUpLeg 13.864397 -24.385553 -3.879865
RightLeg -2.732150 -0.000000 0.000000
RightFoot -17.853552 -21.739779 19.650143
RightToeBase 9.472421 -0.000000 -0.000000
654
root 4.883739 32.290820 1.329311 -0.021632 27.479670 4.227525
Spine -0.879427 28.845719 -3.301106
Head -2.495139 -29.792786 -10.469247
LeftShoulder -6.467013 -8.667125 19.918992
LeftArm -2.302129 40.289216 -99.640206
LeftForeArm 5.336293 -0.000000 14.161870
LeftHand 10.698690 -0.000000 -4.950833
LeftHandThumb1 -26.253704 0.000000 33.147579
RightShoulder 0.948770 24.993475 -49.554021
RightArm 68.352102 19.439502 109.950173
RightForeArm 25.579654 -0.000000 67.534205
RightHand 25.392594 0.000000 -5.899064
RightHandThumb1 -24.326973 -0.000000 -32.862282
LeftUpLeg 4.826002 -17.193546 -4.448690
LeftLeg 3.228335 -0.000000 -0.000000
LeftFoot -11.734038 5.037562 -21.027899
LeftToeBase 18.315345 -0.000000 -0.000000
RightUpLeg 13.842350 -24.390053 -3.875682
RightLeg -2.756724 -0.000000 0.000000
RightFoot -17.844228 -21.745915 19.683483
RightToeBase 9.468552 -0.000000 -0.000000
655
root 4.886168 32.291324 1.327413 0.024796 27.497445 4.234229
Spine -0.868192 28.877410 -3.305936
Head -2.558662 -29.745234 -10.542666
LeftShoulder -6.463656 -8.690889 19.899062
LeftArm -2.270290 40.329304 -99.626740
LeftForeArm 5.386208 -0.000000 14.147521
LeftHand 10.686695 -0.000000 -4.983543
LeftHandThumb1 -26.253704 0.000000 33.147579
RightShoulder 1.018123 24.838924 -49.493351
RightArm 68.661756 19.905948 110.557719
RightForeArm 25.440842 0.000000 70.033409
RightHand 25.460919 -0.000000 -6.447439
RightHandThumb1 -24.326973 -0.000000 -32.862282
LeftUpLeg 4.780047 -17.207564 -4.442689
LeftLeg 3.225127 -0.000000 -0.000000
LeftFoot -11.705974 5.024300 -20.998214
LeftToeBase 18.282047 -0.000000 -0.000000
RightUpLeg 13.811472 -24.344697 -3.853564
RightLeg -2.794442 -0.000000 0.000000
RightFoot -17.840282 -21.803671 19.694170
RightToeBase 9.493183 -0.000000 -0.000000
656
root 4.890919 32.291526 1.326770 0.047479 27.545852 4.222578
Spine -0.826851 28.880668 -3.274086
Head -2.661594 -29.685368 -10.612750
LeftShoulder -6.482890 -8.740138 19.876988
LeftArm -2.272574 40.382152 -99.641095
LeftForeArm 5.402696 -0.000000 14.137449
LeftHand 10.654419 -0.000000 -5.040018
LeftHandThumb1 -26.253704 0.000000 33.147579
RightShoulder 1.052705 24.820563 -49.443899
RightArm 68.884594 20.369516 111.098340
RightForeArm 25.700308 -0.000000 72.385340
RightHand 25.426757 -0.000000 -5.559256
RightHandThumb1 -24.326973 -0.000000 -32.862282
LeftUpLeg 4.741018 -17.211156 -4.423353
LeftLeg 3.236266 -0.000000 -0.000000
LeftFoot -11.692523 4.968154 -20.994287
LeftToeBase 18.265907 -0.000000 -0.000000
RightUpLeg 13.812523 -24.351737 -3.836058
RightLeg -2.837146 -0.000000 0.000000
RightFoot -17.833214 -21.847430 19.725539
RightToeBase 9.526236 -0.000000 -0.000000
657
root 4.893703 32.291964 1.326032 0.086117 27.581308 4.223415
Spine -0.804050 28.913753 -3.270669
Head -2.748825 -29.632003 -10.678186
LeftShoulder -6.471117 -8.762795 19.849788
LeftArm -2.243364 40.421000 -99.617063
LeftForeArm 5.400067 -0.000000 14.141183
LeftHand 10.649261 -0.000000 -5.014460
LeftHandThumb1 -26.253704 0.000000 33.147579
RightShoulder 1.091553 24.788086 -49.363555
RightArm 69.157139 20.796535 111.570950
RightForeArm 25.942630 -0.000000 74.722683
RightHand 25.849024 -0.000000 -5.996437
RightHandThumb1 -24.326973 -0.000000 -32.862282
LeftUpLeg 4.695933 -17.210818 -4.411524
LeftLeg 3.237318 -0.000000 -0.000000
LeftFoot -11.667571 4.928683 -20.989176
LeftToeBase 18.306129 -0.000000 -0.000000
RightUpLeg 13.789099 -24.338413 -3.817541
RightLeg -2.861722 -0.000000 0.000000
RightFoot -17.833984 -21.891005 19.748893
RightToeBase 9.543898 -0.000000 -0.000000
